<svg xmlns="http://www.w3.org/2000/svg" data-name="Layer 1" viewBox="0 0 152.16 152.16"><defs><linearGradient id="b" x1="13.88" x2="131.98" y1="198.56" y2="-33.98" gradientUnits="userSpaceOnUse"><stop offset="0" stop-color="#bce31b"/><stop offset=".05" stop-color="#a2da2d"/><stop offset=".13" stop-color="#7ecf48"/><stop offset=".22" stop-color="#5ec55f"/><stop offset=".32" stop-color="#45bd71"/><stop offset=".42" stop-color="#32b680"/><stop offset=".55" stop-color="#24b28a"/><stop offset=".7" stop-color="#1caf90"/><stop offset=".98" stop-color="#1aaf92"/></linearGradient><clipPath id="a"><rect width="152.16" height="152.16" rx="34.01" ry="34.01" style="fill:none"/></clipPath></defs><g style="clip-path:url(#a)"><rect width="152.16" height="152.16" rx="34.01" ry="34.01" style="fill:url(#b)"/></g><path d="M75.99 56.54c-3.21-2.76-6.77-5.13-10.65-7.11-11.38-5.8-23.26-6.66-23.26-6.66v9.2c11.02 1.43 20.38 5.17 27.51 11.12-1.74 2.13-3.33 4.4-4.77 6.82-.06.09-.11.19-.16.28-2.01-1.7-4.19-3.21-6.54-4.51-8.14-4.51-16.09-5.28-16.09-5.28v9.2c7.58 1.42 13.78 4.51 18.48 9.18-3.47 8.84-5.3 19.13-5.45 30.78h9.13c.21-16.78 4.18-30.09 11.78-39.84 7.61 9.75 11.57 23.06 11.78 39.84h9.13c-.15-11.64-1.97-21.91-5.43-30.75 4.73-4.69 10.97-7.78 18.61-9.19v-9.21s-8.13.86-16.16 5.29a40.53 40.53 0 0 0-6.59 4.54c-.06-.1-.12-.21-.18-.31a53.969 53.969 0 0 0-4.77-6.82c7.16-5.98 16.65-9.72 27.74-11.14v-9.32s-12.67 1.33-23.38 6.76a53.948 53.948 0 0 0-10.75 7.16Z" style="fill:#1f2a36"/></svg>